<svg width="179" height="18" viewBox="0 0 179 18" fill="none" xmlns="http://www.w3.org/2000/svg">
<g clip-path="url(#clip0_177_613)">
<path d="M13.837 1.24585V3.82342C12.0759 2.96423 10.4825 2.49167 9.01499 2.49167C7.12813 2.49167 5.53479 3.09311 4.27688 4.33893C3.01897 5.58475 2.34809 7.13129 2.34809 8.93559C2.34809 10.7828 3.01897 12.3294 4.31881 13.5752C5.61865 14.821 7.29585 15.4225 9.26657 15.4225C10.6922 15.4225 12.2436 14.9499 13.837 14.0478V16.6253C12.3694 17.4416 10.7761 17.8282 9.05692 17.8282C6.54111 17.8282 4.40267 16.969 2.6416 15.2077C0.880534 13.4463 0 11.3413 0 8.89263C0 6.4869 0.880534 4.42485 2.6416 2.70647C4.40267 0.988095 6.49918 0.128906 8.97306 0.128906C10.5245 0.128906 12.1598 0.515541 13.837 1.24585Z" fill="#282828"/>
<path d="M24.613 0.644409H28.1352C29.8962 0.644409 31.2799 1.074 32.4121 1.97615C33.5022 2.8783 34.0473 3.99524 34.0473 5.36995C34.0473 6.48689 33.7119 7.47496 32.9991 8.29119C32.2863 9.15038 31.1961 9.75181 29.6866 10.0955L34.3828 17.1838H31.867L27.3385 10.3962H26.8353V17.2267H24.613V0.644409ZM26.8353 2.6635V8.42007C30.1059 8.50598 31.7412 7.51792 31.7412 5.49882C31.7412 4.81147 31.5315 4.21004 31.1541 3.78045C30.7768 3.35085 30.2736 3.05014 29.6447 2.8783C28.9738 2.74942 28.0513 2.6635 26.8353 2.6635Z" fill="#282828"/>
<path d="M44.3621 0.644409H53.3352V2.92126H46.5425V7.04536H53.3352V9.27925H46.5425V14.9929H53.3352V17.2267H44.3621V0.644409Z" fill="#282828"/>
<path d="M69.7719 0.0429688L77.4032 17.2697H75.097L73.2101 13.0167H66.3336L64.4887 17.2697H62.1825L69.7719 0.0429688ZM69.7719 5.1981L67.1722 11.1265H72.3715L69.7719 5.1981Z" fill="#282828"/>
<path d="M84.1539 0.644409H94.0495V2.92126H90.1919V17.2267H88.0115V2.92126H84.1539V0.644409Z" fill="#282828"/>
<path d="M104.322 0.644409H106.503V17.2267H104.322V0.644409Z" fill="#282828"/>
<path d="M116.65 8.84967C116.65 6.44394 117.53 4.42485 119.291 2.70647C121.052 0.988095 123.149 0.128906 125.623 0.128906C128.055 0.128906 130.109 0.988095 131.87 2.70647C133.632 4.42485 134.47 6.4869 134.47 8.84967C134.47 11.3413 133.59 13.4893 131.87 15.2077C130.151 16.926 128.055 17.7852 125.539 17.7852C123.065 17.7852 120.969 16.926 119.249 15.1647C117.53 13.4463 116.65 11.3413 116.65 8.84967ZM132.122 8.93559C132.122 7.08833 131.493 5.58475 130.193 4.29597C128.893 3.05015 127.342 2.40576 125.455 2.40576C123.652 2.40576 122.143 3.05015 120.885 4.29597C119.627 5.58475 118.956 7.08833 118.956 8.89263C118.956 10.6969 119.627 12.2435 120.927 13.4893C122.226 14.7351 123.82 15.3795 125.749 15.3795C127.51 15.3795 128.977 14.7351 130.277 13.4463C131.493 12.2435 132.122 10.6969 132.122 8.93559Z" fill="#282828"/>
<path d="M143.485 0L155.435 12.5871V0.644391H157.658V18L145.707 5.45585V17.2267H143.485V0Z" fill="#282828"/>
<path d="M178.623 2.49168L176.82 3.9523C176.358 3.43679 175.939 3.09312 175.52 2.83536C175.142 2.5776 174.597 2.44872 173.843 2.44872C173.046 2.44872 172.417 2.62056 171.914 3.0072C171.411 3.39383 171.159 3.86639 171.159 4.42486C171.159 4.94037 171.369 5.36997 171.788 5.7566C172.207 6.14324 172.962 6.57283 174.01 7.00242C175.059 7.47498 175.855 7.90457 176.442 8.29121C177.029 8.67784 177.491 9.10744 177.868 9.57999C178.245 10.0525 178.497 10.5681 178.706 11.0836C178.874 11.5991 179 12.1576 179 12.759C179 14.1337 178.497 15.2936 177.532 16.2817C176.568 17.2697 175.352 17.7423 173.968 17.7423C172.627 17.7423 171.411 17.3556 170.362 16.6253C169.314 15.8521 168.517 14.7351 167.972 13.2315L170.195 12.5871C170.991 14.4344 172.249 15.3795 173.885 15.3795C174.681 15.3795 175.352 15.1218 175.897 14.6492C176.442 14.1766 176.694 13.5323 176.694 12.8019C176.694 12.3724 176.568 11.8998 176.275 11.4272C175.981 10.9547 175.688 10.611 175.268 10.3103C174.849 10.0096 174.178 9.66591 173.297 9.27927C172.375 8.89264 171.704 8.54896 171.201 8.24825C170.698 7.94753 170.279 7.5609 169.943 7.1313C169.566 6.70171 169.314 6.27211 169.146 5.84252C168.979 5.41293 168.895 4.94037 168.895 4.46782C168.895 3.26495 169.356 2.27689 170.279 1.4177C171.201 0.601469 172.333 0.171875 173.675 0.171875C174.555 0.171875 175.436 0.386672 176.358 0.773307C177.281 1.11698 178.036 1.71841 178.623 2.49168Z" fill="#282828"/>
</g>
<defs>
<clipPath id="clip0_177_613">
<rect width="179" height="18" fill="white"/>
</clipPath>
</defs>
</svg>
