<svg width="105" height="74" viewBox="0 0 105 74" fill="none" xmlns="http://www.w3.org/2000/svg">
<path d="M73.2698 43.4905C77.2848 43.4905 80.5395 40.6944 80.5395 37.2452C80.5395 33.7961 77.2848 31 73.2698 31C69.2548 31 66 33.7961 66 37.2452C66 40.6944 69.2548 43.4905 73.2698 43.4905Z" fill="#17221D"/>
<path d="M47.4274 73.8435C40.273 73.8435 33.1186 73.8435 25.9258 73.8435C19.733 73.8435 16.7328 72.196 17.0405 68.7477C17.5021 63.7285 21.887 63.8051 26.1566 63.8051C32.4263 63.8051 38.696 63.8051 44.9657 63.8051C47.5813 63.8051 50.6584 63.7285 50.1584 60.74C49.9661 59.6288 46.9658 58.2495 45.1195 58.0963C40.6961 57.7131 36.1958 57.943 31.6955 57.943C27.6182 57.943 24.3872 56.7553 24.5026 52.7706C24.618 49.1307 27.5798 47.8663 31.5031 47.943C33.6571 47.9813 35.965 48.3644 37.8882 47.7897C40.9269 46.9468 41.6577 43.5368 38.6191 42.3107C31.8109 41.6594 24.8873 42.1192 18.0021 42.0042C13.3479 42.0042 7.38596 42.3107 7.46289 36.9084C7.53982 33.7666 9.80922 32.1191 13.3479 32.0808C21.7716 32.0042 30.1569 32.0425 38.5806 32.0042C40.0038 32.0042 41.6577 32.3107 42.8117 31.8126C43.3502 31.5827 43.8118 31.2379 44.2349 30.8548C46.0427 29.2839 45.0041 26.7168 42.6963 26.1038C40.5038 25.6057 38.0806 25.9505 35.7342 25.9505C26.772 25.9505 17.8483 25.9505 8.88607 25.9505C2.61637 25.9505 -0.383851 24.3413 0.0392571 20.893C0.616223 16.0271 4.88577 15.9121 9.23225 15.9121C21.7716 15.9505 34.311 15.9121 46.812 15.9121C48.8506 15.9888 50.043 16.3719 51.6585 15.1842C53.851 13.8432 53.1971 10.5865 50.4661 10.2416C44.581 9.93511 38.6575 10.1267 32.734 10.0884C27.0413 10.0501 24.041 8.28759 24.3488 4.95424C24.8873 0.777975 28.3491 0.0116874 32.5417 0.0883161C47.3889 0.356517 61.8516 -0.524714 76.6219 0.548088C82.8531 1.00786 89.7383 3.84312 95.2387 7.17647C100.547 10.3566 104.085 14.7627 104.124 20.7014C104.162 24.916 102.201 28.2877 97.9312 30.3183C93.5462 32.3873 89.0074 32.349 84.661 30.0118C82.8531 29.0157 81.1992 27.7896 79.3144 26.9467C73.5832 24.3796 66.7365 25.7206 62.8901 30.0118C54.1202 39.8969 67.3135 53.0771 79.9683 46.8318C81.6607 45.9889 83.1224 44.8012 84.8148 43.9583C89.1998 41.6977 93.7001 41.736 98.085 43.805C102.432 45.874 104.201 49.3223 104.124 53.4985C103.97 60.3951 99.3159 64.9545 93.0077 68.4028C79.3913 75.9124 62.7747 73.4986 47.4274 73.8435Z" fill="#17221D"/>
<path d="M14.4634 58.2495C18.0748 58.2495 21.0023 55.7107 21.0023 52.579C21.0023 49.4473 18.0748 46.9085 14.4634 46.9085C10.852 46.9085 7.92445 49.4473 7.92445 52.579C7.92445 55.7107 10.852 58.2495 14.4634 58.2495Z" fill="#17221D"/>
</svg>
