<svg width="163" height="163" viewBox="0 0 163 163" fill="none" xmlns="http://www.w3.org/2000/svg">
<rect x="0.5" y="0.5" width="162" height="162" fill="#B5B5B5"/>
<rect x="0.5" y="0.5" width="162" height="162" fill="#B5B5B5"/>
<rect x="0.5" y="0.5" width="162" height="162" fill="#8A8A8A"/>
<rect x="0.5" y="0.5" width="162" height="162" stroke="black"/>
<path d="M95.5665 85.6403C98.1182 85.6403 100.187 83.8633 100.187 81.6712C100.187 79.4791 98.1182 77.702 95.5665 77.702C93.0147 77.702 90.9462 79.4791 90.9462 81.6712C90.9462 83.8633 93.0147 85.6403 95.5665 85.6403Z" fill="#17221D" fill-opacity="0.18"/>
<path d="M79.1424 104.931C74.5954 104.931 70.0485 104.931 65.4771 104.931C61.5413 104.931 59.6345 103.884 59.8301 101.692C60.1234 98.5025 62.9103 98.5512 65.6238 98.5512C69.6085 98.5512 73.5932 98.5512 77.5779 98.5512C79.2402 98.5512 81.1959 98.5025 80.8781 96.6032C80.7558 95.897 78.849 95.0204 77.6756 94.923C74.8643 94.6795 72.0042 94.8256 69.144 94.8256C66.5527 94.8256 64.4993 94.0707 64.5726 91.5382C64.6459 89.2249 66.5283 88.4214 69.0218 88.4701C70.3907 88.4944 71.8575 88.7379 73.0798 88.3727C75.011 87.8369 75.4755 85.6697 73.5443 84.8905C69.2173 84.4766 64.8171 84.7688 60.4412 84.6957C57.4833 84.6957 53.6941 84.8905 53.743 81.4571C53.7919 79.4603 55.2342 78.4132 57.4833 78.3889C62.8369 78.3402 68.1662 78.3645 73.5198 78.3402C74.4243 78.3402 75.4755 78.535 76.2089 78.2184C76.5511 78.0723 76.8445 77.8532 77.1134 77.6097C78.2623 76.6113 77.6023 74.9798 76.1355 74.5902C74.7421 74.2736 73.202 74.4928 71.7108 74.4928C66.0149 74.4928 60.3434 74.4928 54.6475 74.4928C50.6628 74.4928 48.756 73.4701 49.0249 71.2785C49.3916 68.186 52.1051 68.1129 54.8675 68.1129C62.8369 68.1373 70.8063 68.1129 78.7513 68.1129C80.0469 68.1616 80.8047 68.4051 81.8315 67.6503C83.2249 66.798 82.8093 64.7282 81.0736 64.509C77.3334 64.3142 73.5687 64.436 69.804 64.4116C66.186 64.3873 64.2792 63.2672 64.4748 61.1487C64.8171 58.4944 67.0172 58.0074 69.6818 58.0561C79.1179 58.2266 88.3096 57.6665 97.6969 58.3483C101.657 58.6405 106.033 60.4425 109.529 62.561C112.902 64.5821 115.151 67.3824 115.176 71.1568C115.2 73.8353 113.953 75.9782 111.24 77.2688C108.453 78.5837 105.569 78.5594 102.806 77.074C101.657 76.4408 100.606 75.6616 99.4081 75.1259C95.7657 73.4944 91.4143 74.3467 88.9697 77.074C83.396 83.3564 91.781 91.733 99.8237 87.7639C100.899 87.2282 101.828 86.4733 102.904 85.9376C105.691 84.5009 108.551 84.5253 111.338 85.8402C114.1 87.1551 115.225 89.3467 115.176 92.0009C115.078 96.384 112.12 99.2817 108.111 101.473C99.457 106.246 88.8963 104.712 79.1424 104.931Z" fill="#17221D" fill-opacity="0.18"/>
<path d="M58.1922 95.0204C60.4874 95.0204 62.348 93.4069 62.348 91.4165C62.348 89.4261 60.4874 87.8126 58.1922 87.8126C55.897 87.8126 54.0364 89.4261 54.0364 91.4165C54.0364 93.4069 55.897 95.0204 58.1922 95.0204Z" fill="#17221D" fill-opacity="0.18"/>
</svg>
